<svg width="57" height="54" viewBox="0 0 57 54" fill="none" xmlns="http://www.w3.org/2000/svg">
<path d="M10.7233 9.67407C12.5134 9.67407 13.9645 8.22296 13.9645 6.43292C13.9645 4.64288 12.5134 3.19177 10.7233 3.19177C8.93333 3.19177 7.48223 4.64288 7.48223 6.43292C7.48223 8.22296 8.93333 9.67407 10.7233 9.67407Z" fill="black"/>
<path d="M48.528 19.7477C50.318 19.7477 51.7691 18.2966 51.7691 16.5066C51.7691 14.7166 50.318 13.2655 48.528 13.2655C46.738 13.2655 45.2869 14.7166 45.2869 16.5066C45.2869 18.2966 46.738 19.7477 48.528 19.7477Z" fill="black"/>
<path d="M20.4383 42.0938C22.2283 42.0938 23.6794 40.6427 23.6794 38.8527C23.6794 37.0627 22.2283 35.6116 20.4383 35.6116C18.6482 35.6116 17.1971 37.0627 17.1971 38.8527C17.1971 40.6427 18.6482 42.0938 20.4383 42.0938Z" fill="black"/>
<path d="M4.71305 17.3484L8.04168 14.4162L13.2642 14.2023L16.4718 17.2565L17.2108 21.5565L4.15881 21.5479L4.71305 17.3484Z" fill="#D93752"/>
<path d="M42.5852 27.4242L45.9149 24.4921L51.1375 24.2782L54.344 27.3323L55.084 31.6321L42.031 31.6245L42.5852 27.4242Z" fill="#FFDD98"/>
<path d="M14.4881 49.7681L17.8167 46.836L23.0403 46.6221L26.2469 49.6763L26.9858 53.9762L13.9349 53.9676L14.4881 49.7681Z" fill="#2CC1A7"/>
<path d="M10.7234 9.67407C12.5134 9.67407 13.9645 8.22296 13.9645 6.43292C13.9645 4.64288 12.5134 3.19177 10.7234 3.19177C8.93334 3.19177 7.48224 4.64288 7.48224 6.43292C7.48224 8.22296 8.93334 9.67407 10.7234 9.67407Z" stroke="black" stroke-width="2" stroke-miterlimit="10"/>
<path d="M4.24115 20.4783C4.24115 20.4783 5.32152 15.8208 7.48227 14.7404C9.64302 13.6601 11.8038 13.6601 13.9645 14.7404C16.1253 15.8208 17.2056 20.4783 17.2056 20.4783" stroke="#D93752" stroke-width="2" stroke-miterlimit="10" stroke-linecap="round" stroke-linejoin="round"/>
<path d="M48.528 19.7477C50.318 19.7477 51.7691 18.2966 51.7691 16.5066C51.7691 14.7166 50.318 13.2655 48.528 13.2655C46.738 13.2655 45.2869 14.7166 45.2869 16.5066C45.2869 18.2966 46.738 19.7477 48.528 19.7477Z" stroke="black" stroke-width="2" stroke-miterlimit="10"/>
<path d="M42.0458 30.552C42.0458 30.552 43.1261 25.8945 45.2869 24.8141C47.4476 23.7337 49.6084 23.7337 51.7691 24.8141C53.9299 25.8945 55.0103 30.5509 55.0103 30.5509" stroke="#FFDD98" stroke-width="2" stroke-miterlimit="10" stroke-linecap="round" stroke-linejoin="round"/>
<path d="M20.4383 42.0938C22.2283 42.0938 23.6794 40.6427 23.6794 38.8527C23.6794 37.0627 22.2283 35.6116 20.4383 35.6116C18.6482 35.6116 17.1971 37.0627 17.1971 38.8527C17.1971 40.6427 18.6482 42.0938 20.4383 42.0938Z" stroke="black" stroke-width="2" stroke-miterlimit="10"/>
<path d="M13.9561 52.8981C13.9561 52.8981 15.0364 48.2405 17.1972 47.1601C19.3579 46.0798 21.5187 46.0798 23.6794 47.1601C25.8402 48.2405 26.9205 52.897 26.9205 52.897" stroke="#2CC1A7" stroke-width="2" stroke-miterlimit="10" stroke-linecap="round" stroke-linejoin="round"/>
<path d="M44.8115 9.82104C40.2534 4.4441 33.4492 1.03125 25.8488 1.03125C22.8562 1.03125 19.9889 1.56063 17.3322 2.52971" stroke="#DD4D64" stroke-width="2" stroke-miterlimit="10" stroke-linecap="round" stroke-linejoin="round"/>
<path d="M30.6385 50.2681C39.5116 48.5351 46.695 42.082 49.4662 33.6281" stroke="#DD4D64" stroke-width="2" stroke-miterlimit="10" stroke-linecap="round" stroke-linejoin="round"/>
<path d="M1.09399 23.7063C1.03131 24.4292 0.999953 25.1544 1 25.88C1 34.4949 5.38416 42.0856 12.0436 46.5443" stroke="#DD4D64" stroke-width="2" stroke-miterlimit="10" stroke-linecap="round" stroke-linejoin="round"/>
</svg>
