<svg width="657" height="262" viewBox="0 0 657 262" fill="none" xmlns="http://www.w3.org/2000/svg">
<g filter="url(#filter0_d_111_3)">
<path d="M-1 237.064C-1 237.064 26.7728 174.565 60.9175 178.235C91.2843 181.5 102.055 199.688 132.082 193.192C164.11 186.263 145.659 155.437 174.299 136.357C212.364 110.998 216.883 160.4 255.5 136.357C291.71 113.813 291 50.0645 291 50.0645" stroke="#EA947A" stroke-width="2"/>
</g>
<circle cx="596" cy="80.0645" r="39" fill="#C4C4C4"/>
<g filter="url(#filter1_d_111_3)">
<rect x="69" y="33" width="551" height="56" rx="5" fill="white"/>
</g>
<rect x="507" y="40.0645" width="100" height="40" rx="5" fill="#FF7900"/>
<path d="M529.329 53.2676V66.0645H527.624L521.182 56.1943V66.0645H519.485V53.2676H521.182L527.65 63.1641V53.2676H529.329ZM531.658 61.415V61.2129C531.658 60.5273 531.758 59.8916 531.957 59.3057C532.156 58.7139 532.443 58.2012 532.818 57.7676C533.193 57.3281 533.647 56.9883 534.181 56.748C534.714 56.502 535.312 56.3789 535.974 56.3789C536.642 56.3789 537.242 56.502 537.775 56.748C538.314 56.9883 538.771 57.3281 539.146 57.7676C539.527 58.2012 539.817 58.7139 540.017 59.3057C540.216 59.8916 540.315 60.5273 540.315 61.2129V61.415C540.315 62.1006 540.216 62.7363 540.017 63.3223C539.817 63.9082 539.527 64.4209 539.146 64.8604C538.771 65.2939 538.317 65.6338 537.784 65.8799C537.257 66.1201 536.659 66.2402 535.991 66.2402C535.323 66.2402 534.723 66.1201 534.189 65.8799C533.656 65.6338 533.199 65.2939 532.818 64.8604C532.443 64.4209 532.156 63.9082 531.957 63.3223C531.758 62.7363 531.658 62.1006 531.658 61.415ZM533.284 61.2129V61.415C533.284 61.8896 533.34 62.3379 533.451 62.7598C533.562 63.1758 533.729 63.5449 533.952 63.8672C534.181 64.1895 534.465 64.4443 534.805 64.6318C535.145 64.8135 535.54 64.9043 535.991 64.9043C536.437 64.9043 536.826 64.8135 537.16 64.6318C537.5 64.4443 537.781 64.1895 538.004 63.8672C538.227 63.5449 538.394 63.1758 538.505 62.7598C538.622 62.3379 538.681 61.8896 538.681 61.415V61.2129C538.681 60.7441 538.622 60.3018 538.505 59.8857C538.394 59.4639 538.224 59.0918 537.995 58.7695C537.772 58.4414 537.491 58.1836 537.151 57.9961C536.817 57.8086 536.425 57.7148 535.974 57.7148C535.528 57.7148 535.136 57.8086 534.796 57.9961C534.462 58.1836 534.181 58.4414 533.952 58.7695C533.729 59.0918 533.562 59.4639 533.451 59.8857C533.34 60.3018 533.284 60.7441 533.284 61.2129ZM546.336 56.5547V57.8027H541.194V56.5547H546.336ZM542.935 54.2432H544.561V63.709C544.561 64.0312 544.61 64.2744 544.71 64.4385C544.81 64.6025 544.938 64.7109 545.097 64.7637C545.255 64.8164 545.425 64.8428 545.606 64.8428C545.741 64.8428 545.882 64.8311 546.028 64.8076C546.181 64.7783 546.295 64.7549 546.371 64.7373L546.38 66.0645C546.251 66.1055 546.081 66.1436 545.87 66.1787C545.665 66.2197 545.416 66.2402 545.123 66.2402C544.725 66.2402 544.358 66.1611 544.024 66.0029C543.69 65.8447 543.424 65.5811 543.225 65.2119C543.031 64.8369 542.935 64.333 542.935 63.7002V54.2432ZM550.01 56.5547V66.0645H548.375V56.5547H550.01ZM548.252 54.0322C548.252 53.7686 548.331 53.5459 548.489 53.3643C548.653 53.1826 548.894 53.0918 549.21 53.0918C549.521 53.0918 549.758 53.1826 549.922 53.3643C550.092 53.5459 550.177 53.7686 550.177 54.0322C550.177 54.2842 550.092 54.501 549.922 54.6826C549.758 54.8584 549.521 54.9463 549.21 54.9463C548.894 54.9463 548.653 54.8584 548.489 54.6826C548.331 54.501 548.252 54.2842 548.252 54.0322ZM555.046 66.0645H553.42V55.5527C553.42 54.8672 553.543 54.29 553.789 53.8213C554.041 53.3467 554.401 52.9893 554.87 52.749C555.339 52.5029 555.896 52.3799 556.54 52.3799C556.728 52.3799 556.915 52.3916 557.103 52.415C557.296 52.4385 557.483 52.4736 557.665 52.5205L557.577 53.8477C557.454 53.8184 557.313 53.7979 557.155 53.7861C557.003 53.7744 556.851 53.7686 556.698 53.7686C556.353 53.7686 556.054 53.8389 555.802 53.9795C555.556 54.1143 555.368 54.3135 555.239 54.5771C555.11 54.8408 555.046 55.166 555.046 55.5527V66.0645ZM557.067 56.5547V57.8027H551.917V56.5547H557.067ZM561.55 65.0801L564.195 56.5547H565.936L562.121 67.5322C562.033 67.7666 561.916 68.0186 561.77 68.2881C561.629 68.5635 561.447 68.8242 561.225 69.0703C561.002 69.3164 560.732 69.5156 560.416 69.668C560.105 69.8262 559.733 69.9053 559.3 69.9053C559.171 69.9053 559.007 69.8877 558.808 69.8525C558.608 69.8174 558.468 69.7881 558.386 69.7646L558.377 68.4463C558.424 68.4521 558.497 68.458 558.597 68.4639C558.702 68.4756 558.775 68.4814 558.816 68.4814C559.186 68.4814 559.499 68.4316 559.757 68.332C560.015 68.2383 560.231 68.0771 560.407 67.8486C560.589 67.626 560.744 67.3184 560.873 66.9258L561.55 65.0801ZM559.607 56.5547L562.077 63.9375L562.499 65.6514L561.33 66.249L557.832 56.5547H559.607ZM572.65 53.2676H574.294L578.486 63.7002L582.67 53.2676H584.322L579.119 66.0645H577.836L572.65 53.2676ZM572.114 53.2676H573.564L573.802 61.0723V66.0645H572.114V53.2676ZM583.399 53.2676H584.85V66.0645H583.162V61.0723L583.399 53.2676ZM591.529 66.2402C590.867 66.2402 590.267 66.1289 589.728 65.9062C589.194 65.6777 588.734 65.3584 588.348 64.9482C587.967 64.5381 587.674 64.0518 587.469 63.4893C587.264 62.9268 587.161 62.3115 587.161 61.6436V61.2744C587.161 60.501 587.275 59.8125 587.504 59.209C587.732 58.5996 588.043 58.084 588.436 57.6621C588.828 57.2402 589.273 56.9209 589.771 56.7041C590.27 56.4873 590.785 56.3789 591.318 56.3789C591.998 56.3789 592.584 56.4961 593.076 56.7305C593.574 56.9648 593.981 57.293 594.298 57.7148C594.614 58.1309 594.849 58.623 595.001 59.1914C595.153 59.7539 595.229 60.3691 595.229 61.0371V61.7666H588.128V60.4395H593.604V60.3164C593.58 59.8945 593.492 59.4844 593.34 59.0859C593.193 58.6875 592.959 58.3594 592.637 58.1016C592.314 57.8438 591.875 57.7148 591.318 57.7148C590.949 57.7148 590.609 57.7939 590.299 57.9521C589.988 58.1045 589.722 58.333 589.499 58.6377C589.276 58.9424 589.104 59.3145 588.98 59.7539C588.857 60.1934 588.796 60.7002 588.796 61.2744V61.6436C588.796 62.0947 588.857 62.5195 588.98 62.918C589.109 63.3105 589.294 63.6562 589.534 63.9551C589.78 64.2539 590.076 64.4883 590.422 64.6582C590.773 64.8281 591.172 64.9131 591.617 64.9131C592.191 64.9131 592.678 64.7959 593.076 64.5615C593.475 64.3271 593.823 64.0137 594.122 63.6211L595.106 64.4033C594.901 64.7139 594.641 65.0098 594.324 65.291C594.008 65.5723 593.618 65.8008 593.155 65.9766C592.698 66.1523 592.156 66.2402 591.529 66.2402Z" fill="white"/>
<path d="M114.372 61.3623C114.349 61.96 114.261 62.5488 114.108 63.1289C113.956 63.709 113.725 64.2334 113.414 64.7021C113.109 65.1709 112.72 65.5459 112.245 65.8271C111.771 66.1084 111.196 66.249 110.522 66.249C110.142 66.249 109.799 66.1816 109.494 66.0469C109.189 65.9121 108.932 65.7217 108.721 65.4756C108.51 65.2236 108.354 64.9219 108.255 64.5703C108.155 64.2188 108.12 63.8232 108.149 63.3838L108.598 58.3213H110.355L109.916 63.3838C109.881 63.6885 109.884 63.9375 109.925 64.1309C109.972 64.3242 110.042 64.4736 110.136 64.5791C110.235 64.6846 110.347 64.7607 110.47 64.8076C110.599 64.8486 110.725 64.8691 110.848 64.8691C111.129 64.8691 111.387 64.7812 111.621 64.6055C111.855 64.4297 112.058 64.1865 112.228 63.876C112.397 63.5654 112.532 63.2021 112.632 62.7861C112.731 62.3643 112.787 61.9102 112.799 61.4238C112.84 60.6445 112.802 59.9238 112.685 59.2617C112.573 58.5996 112.38 58.0078 112.104 57.4863C111.835 56.959 111.483 56.5137 111.05 56.1504C110.616 55.7812 110.101 55.5 109.503 55.3066C108.905 55.1074 108.223 55.0078 107.455 55.0078C106.734 55.0078 106.069 55.1191 105.46 55.3418C104.856 55.5645 104.314 55.8838 103.834 56.2998C103.359 56.7158 102.949 57.2139 102.604 57.7939C102.264 58.3682 101.994 59.0098 101.795 59.7188C101.602 60.4219 101.487 61.1777 101.452 61.9863C101.411 62.8359 101.455 63.6094 101.584 64.3066C101.719 65.0039 101.933 65.6162 102.226 66.1436C102.524 66.6768 102.896 67.1221 103.342 67.4795C103.787 67.8369 104.306 68.1064 104.897 68.2881C105.489 68.4697 106.148 68.5605 106.875 68.5605C107.385 68.5605 107.903 68.502 108.431 68.3848C108.964 68.2734 109.412 68.1299 109.775 67.9541L110.109 69.2637C109.699 69.5273 109.187 69.7236 108.571 69.8525C107.962 69.9814 107.385 70.0459 106.84 70.0459C105.908 70.0459 105.059 69.9316 104.291 69.7031C103.529 69.4805 102.855 69.1465 102.27 68.7012C101.684 68.2617 101.194 67.7168 100.802 67.0664C100.415 66.416 100.128 65.666 99.9404 64.8164C99.7588 63.9668 99.6885 63.0234 99.7295 61.9863C99.7705 61.0254 99.9199 60.1201 100.178 59.2705C100.436 58.4209 100.787 57.6504 101.232 56.959C101.678 56.2676 102.211 55.6729 102.832 55.1748C103.459 54.6709 104.162 54.2842 104.941 54.0146C105.721 53.7451 106.57 53.6104 107.49 53.6104C108.404 53.6104 109.233 53.7305 109.978 53.9707C110.728 54.2109 111.384 54.5566 111.946 55.0078C112.509 55.4531 112.978 55.9951 113.353 56.6338C113.728 57.2666 114 57.9814 114.17 58.7783C114.34 59.5752 114.407 60.4365 114.372 61.3623ZM105.495 62.2852C105.466 62.6719 105.469 63.0146 105.504 63.3135C105.539 63.6123 105.606 63.8643 105.706 64.0693C105.806 64.2744 105.935 64.4297 106.093 64.5352C106.257 64.6348 106.45 64.6846 106.673 64.6846C106.796 64.6846 106.931 64.6553 107.077 64.5967C107.224 64.5322 107.373 64.4268 107.525 64.2803C107.678 64.1338 107.821 63.9316 107.956 63.6738C108.097 63.4102 108.214 63.0791 108.308 62.6807L109.055 63.5684C108.92 64.0078 108.753 64.3945 108.554 64.7285C108.354 65.0566 108.126 65.332 107.868 65.5547C107.616 65.7773 107.341 65.9443 107.042 66.0557C106.743 66.167 106.421 66.2227 106.075 66.2227C105.647 66.2227 105.267 66.1318 104.933 65.9502C104.599 65.7627 104.32 65.4961 104.098 65.1504C103.875 64.8047 103.714 64.3916 103.614 63.9111C103.521 63.4248 103.503 62.8828 103.562 62.2852C103.626 61.6875 103.743 61.1338 103.913 60.624C104.083 60.1143 104.294 59.6602 104.546 59.2617C104.798 58.8574 105.085 58.5146 105.407 58.2334C105.735 57.9463 106.09 57.7295 106.471 57.583C106.852 57.4365 107.25 57.3633 107.666 57.3633C108.34 57.3633 108.87 57.46 109.257 57.6533C109.644 57.8467 110.01 58.0693 110.355 58.3213L109.459 59.5254C109.289 59.373 109.066 59.2266 108.791 59.0859C108.521 58.9395 108.199 58.8662 107.824 58.8662C107.479 58.8662 107.174 58.9395 106.91 59.0859C106.652 59.2324 106.427 59.4521 106.233 59.7451C106.046 60.0322 105.891 60.3896 105.768 60.8174C105.645 61.2393 105.554 61.7285 105.495 62.2852Z" fill="black"/>
<path d="M160.506 66.2402C159.844 66.2402 159.243 66.1289 158.704 65.9062C158.171 65.6777 157.711 65.3584 157.324 64.9482C156.943 64.5381 156.65 64.0518 156.445 63.4893C156.24 62.9268 156.138 62.3115 156.138 61.6436V61.2744C156.138 60.501 156.252 59.8125 156.48 59.209C156.709 58.5996 157.02 58.084 157.412 57.6621C157.805 57.2402 158.25 56.9209 158.748 56.7041C159.246 56.4873 159.762 56.3789 160.295 56.3789C160.975 56.3789 161.561 56.4961 162.053 56.7305C162.551 56.9648 162.958 57.293 163.274 57.7148C163.591 58.1309 163.825 58.623 163.978 59.1914C164.13 59.7539 164.206 60.3691 164.206 61.0371V61.7666H157.104V60.4395H162.58V60.3164C162.557 59.8945 162.469 59.4844 162.316 59.0859C162.17 58.6875 161.936 58.3594 161.613 58.1016C161.291 57.8438 160.852 57.7148 160.295 57.7148C159.926 57.7148 159.586 57.7939 159.275 57.9521C158.965 58.1045 158.698 58.333 158.476 58.6377C158.253 58.9424 158.08 59.3145 157.957 59.7539C157.834 60.1934 157.772 60.7002 157.772 61.2744V61.6436C157.772 62.0947 157.834 62.5195 157.957 62.918C158.086 63.3105 158.271 63.6562 158.511 63.9551C158.757 64.2539 159.053 64.4883 159.398 64.6582C159.75 64.8281 160.148 64.9131 160.594 64.9131C161.168 64.9131 161.654 64.7959 162.053 64.5615C162.451 64.3271 162.8 64.0137 163.099 63.6211L164.083 64.4033C163.878 64.7139 163.617 65.0098 163.301 65.291C162.984 65.5723 162.595 65.8008 162.132 65.9766C161.675 66.1523 161.133 66.2402 160.506 66.2402ZM167.722 58.4443V66.0645H166.087V56.5547H167.634L167.722 58.4443ZM167.388 60.9492L166.632 60.9229C166.638 60.2725 166.723 59.6719 166.887 59.1211C167.051 58.5645 167.294 58.0811 167.616 57.6709C167.938 57.2607 168.34 56.9443 168.82 56.7217C169.301 56.4932 169.857 56.3789 170.49 56.3789C170.936 56.3789 171.346 56.4434 171.721 56.5723C172.096 56.6953 172.421 56.8916 172.696 57.1611C172.972 57.4307 173.186 57.7764 173.338 58.1982C173.49 58.6201 173.566 59.1299 173.566 59.7275V66.0645H171.94V59.8066C171.94 59.3086 171.855 58.9102 171.686 58.6113C171.521 58.3125 171.287 58.0957 170.982 57.9609C170.678 57.8203 170.32 57.75 169.91 57.75C169.43 57.75 169.028 57.835 168.706 58.0049C168.384 58.1748 168.126 58.4092 167.933 58.708C167.739 59.0068 167.599 59.3496 167.511 59.7363C167.429 60.1172 167.388 60.5215 167.388 60.9492ZM173.549 60.0527L172.459 60.3867C172.465 59.8652 172.55 59.3643 172.714 58.8838C172.884 58.4033 173.127 57.9756 173.443 57.6006C173.766 57.2256 174.161 56.9297 174.63 56.7129C175.099 56.4902 175.635 56.3789 176.238 56.3789C176.748 56.3789 177.199 56.4463 177.592 56.5811C177.99 56.7158 178.324 56.9238 178.594 57.2051C178.869 57.4805 179.077 57.835 179.218 58.2686C179.358 58.7021 179.429 59.2178 179.429 59.8154V66.0645H177.794V59.7979C177.794 59.2646 177.709 58.8516 177.539 58.5586C177.375 58.2598 177.141 58.0518 176.836 57.9346C176.537 57.8115 176.18 57.75 175.764 57.75C175.406 57.75 175.09 57.8115 174.814 57.9346C174.539 58.0576 174.308 58.2275 174.12 58.4443C173.933 58.6553 173.789 58.8984 173.689 59.1738C173.596 59.4492 173.549 59.7422 173.549 60.0527ZM187.497 64.4385V59.543C187.497 59.168 187.421 58.8428 187.269 58.5674C187.122 58.2861 186.899 58.0693 186.601 57.917C186.302 57.7646 185.933 57.6885 185.493 57.6885C185.083 57.6885 184.723 57.7588 184.412 57.8994C184.107 58.04 183.867 58.2246 183.691 58.4531C183.521 58.6816 183.437 58.9277 183.437 59.1914H181.811C181.811 58.8516 181.898 58.5146 182.074 58.1807C182.25 57.8467 182.502 57.5449 182.83 57.2754C183.164 57 183.562 56.7832 184.025 56.625C184.494 56.4609 185.016 56.3789 185.59 56.3789C186.281 56.3789 186.891 56.4961 187.418 56.7305C187.951 56.9648 188.367 57.3193 188.666 57.7939C188.971 58.2627 189.123 58.8516 189.123 59.5605V63.9902C189.123 64.3066 189.149 64.6436 189.202 65.001C189.261 65.3584 189.346 65.666 189.457 65.9238V66.0645H187.761C187.679 65.877 187.614 65.6279 187.567 65.3174C187.521 65.001 187.497 64.708 187.497 64.4385ZM187.778 60.2988L187.796 61.4414H186.152C185.689 61.4414 185.276 61.4795 184.913 61.5557C184.55 61.626 184.245 61.7344 183.999 61.8809C183.753 62.0273 183.565 62.2119 183.437 62.4346C183.308 62.6514 183.243 62.9062 183.243 63.1992C183.243 63.498 183.311 63.7705 183.445 64.0166C183.58 64.2627 183.782 64.459 184.052 64.6055C184.327 64.7461 184.664 64.8164 185.062 64.8164C185.561 64.8164 186 64.7109 186.381 64.5C186.762 64.2891 187.063 64.0312 187.286 63.7266C187.515 63.4219 187.638 63.126 187.655 62.8389L188.35 63.6211C188.309 63.8672 188.197 64.1396 188.016 64.4385C187.834 64.7373 187.591 65.0244 187.286 65.2998C186.987 65.5693 186.63 65.7949 186.214 65.9766C185.804 66.1523 185.341 66.2402 184.825 66.2402C184.181 66.2402 183.615 66.1143 183.129 65.8623C182.648 65.6104 182.273 65.2734 182.004 64.8516C181.74 64.4238 181.608 63.9463 181.608 63.4189C181.608 62.9092 181.708 62.4609 181.907 62.0742C182.106 61.6816 182.394 61.3564 182.769 61.0986C183.144 60.835 183.595 60.6357 184.122 60.501C184.649 60.3662 185.238 60.2988 185.889 60.2988H187.778ZM193.447 56.5547V66.0645H191.812V56.5547H193.447ZM191.689 54.0322C191.689 53.7686 191.769 53.5459 191.927 53.3643C192.091 53.1826 192.331 53.0918 192.647 53.0918C192.958 53.0918 193.195 53.1826 193.359 53.3643C193.529 53.5459 193.614 53.7686 193.614 54.0322C193.614 54.2842 193.529 54.501 193.359 54.6826C193.195 54.8584 192.958 54.9463 192.647 54.9463C192.331 54.9463 192.091 54.8584 191.927 54.6826C191.769 54.501 191.689 54.2842 191.689 54.0322ZM197.824 52.5645V66.0645H196.189V52.5645H197.824ZM210.507 64.4385V59.543C210.507 59.168 210.431 58.8428 210.278 58.5674C210.132 58.2861 209.909 58.0693 209.61 57.917C209.312 57.7646 208.942 57.6885 208.503 57.6885C208.093 57.6885 207.732 57.7588 207.422 57.8994C207.117 58.04 206.877 58.2246 206.701 58.4531C206.531 58.6816 206.446 58.9277 206.446 59.1914H204.82C204.82 58.8516 204.908 58.5146 205.084 58.1807C205.26 57.8467 205.512 57.5449 205.84 57.2754C206.174 57 206.572 56.7832 207.035 56.625C207.504 56.4609 208.025 56.3789 208.6 56.3789C209.291 56.3789 209.9 56.4961 210.428 56.7305C210.961 56.9648 211.377 57.3193 211.676 57.7939C211.98 58.2627 212.133 58.8516 212.133 59.5605V63.9902C212.133 64.3066 212.159 64.6436 212.212 65.001C212.271 65.3584 212.355 65.666 212.467 65.9238V66.0645H210.771C210.688 65.877 210.624 65.6279 210.577 65.3174C210.53 65.001 210.507 64.708 210.507 64.4385ZM210.788 60.2988L210.806 61.4414H209.162C208.699 61.4414 208.286 61.4795 207.923 61.5557C207.56 61.626 207.255 61.7344 207.009 61.8809C206.763 62.0273 206.575 62.2119 206.446 62.4346C206.317 62.6514 206.253 62.9062 206.253 63.1992C206.253 63.498 206.32 63.7705 206.455 64.0166C206.59 64.2627 206.792 64.459 207.062 64.6055C207.337 64.7461 207.674 64.8164 208.072 64.8164C208.57 64.8164 209.01 64.7109 209.391 64.5C209.771 64.2891 210.073 64.0312 210.296 63.7266C210.524 63.4219 210.647 63.126 210.665 62.8389L211.359 63.6211C211.318 63.8672 211.207 64.1396 211.025 64.4385C210.844 64.7373 210.601 65.0244 210.296 65.2998C209.997 65.5693 209.64 65.7949 209.224 65.9766C208.813 66.1523 208.351 66.2402 207.835 66.2402C207.19 66.2402 206.625 66.1143 206.139 65.8623C205.658 65.6104 205.283 65.2734 205.014 64.8516C204.75 64.4238 204.618 63.9463 204.618 63.4189C204.618 62.9092 204.718 62.4609 204.917 62.0742C205.116 61.6816 205.403 61.3564 205.778 61.0986C206.153 60.835 206.604 60.6357 207.132 60.501C207.659 60.3662 208.248 60.2988 208.898 60.2988H210.788ZM220.685 64.2188V52.5645H222.319V66.0645H220.825L220.685 64.2188ZM214.286 61.415V61.2305C214.286 60.5039 214.374 59.8447 214.55 59.2529C214.731 58.6553 214.986 58.1426 215.314 57.7148C215.648 57.2871 216.044 56.959 216.501 56.7305C216.964 56.4961 217.479 56.3789 218.048 56.3789C218.646 56.3789 219.167 56.4844 219.612 56.6953C220.063 56.9004 220.444 57.2021 220.755 57.6006C221.071 57.9932 221.32 58.4678 221.502 59.0244C221.684 59.5811 221.81 60.2109 221.88 60.9141V61.7227C221.815 62.4199 221.689 63.0469 221.502 63.6035C221.32 64.1602 221.071 64.6348 220.755 65.0273C220.444 65.4199 220.063 65.7217 219.612 65.9326C219.161 66.1377 218.634 66.2402 218.03 66.2402C217.474 66.2402 216.964 66.1201 216.501 65.8799C216.044 65.6396 215.648 65.3027 215.314 64.8691C214.986 64.4355 214.731 63.9258 214.55 63.3398C214.374 62.748 214.286 62.1064 214.286 61.415ZM215.921 61.2305V61.415C215.921 61.8896 215.968 62.335 216.062 62.751C216.161 63.167 216.313 63.5332 216.519 63.8496C216.724 64.166 216.984 64.415 217.301 64.5967C217.617 64.7725 217.995 64.8604 218.435 64.8604C218.974 64.8604 219.416 64.7461 219.762 64.5176C220.113 64.2891 220.395 63.9873 220.605 63.6123C220.816 63.2373 220.98 62.8301 221.098 62.3906V60.2725C221.027 59.9502 220.925 59.6396 220.79 59.3408C220.661 59.0361 220.491 58.7666 220.28 58.5322C220.075 58.292 219.82 58.1016 219.516 57.9609C219.217 57.8203 218.862 57.75 218.452 57.75C218.007 57.75 217.623 57.8438 217.301 58.0312C216.984 58.2129 216.724 58.4648 216.519 58.7871C216.313 59.1035 216.161 59.4727 216.062 59.8945C215.968 60.3105 215.921 60.7559 215.921 61.2305ZM230.845 64.2188V52.5645H232.479V66.0645H230.985L230.845 64.2188ZM224.446 61.415V61.2305C224.446 60.5039 224.534 59.8447 224.71 59.2529C224.892 58.6553 225.146 58.1426 225.475 57.7148C225.809 57.2871 226.204 56.959 226.661 56.7305C227.124 56.4961 227.64 56.3789 228.208 56.3789C228.806 56.3789 229.327 56.4844 229.772 56.6953C230.224 56.9004 230.604 57.2021 230.915 57.6006C231.231 57.9932 231.48 58.4678 231.662 59.0244C231.844 59.5811 231.97 60.2109 232.04 60.9141V61.7227C231.976 62.4199 231.85 63.0469 231.662 63.6035C231.48 64.1602 231.231 64.6348 230.915 65.0273C230.604 65.4199 230.224 65.7217 229.772 65.9326C229.321 66.1377 228.794 66.2402 228.19 66.2402C227.634 66.2402 227.124 66.1201 226.661 65.8799C226.204 65.6396 225.809 65.3027 225.475 64.8691C225.146 64.4355 224.892 63.9258 224.71 63.3398C224.534 62.748 224.446 62.1064 224.446 61.415ZM226.081 61.2305V61.415C226.081 61.8896 226.128 62.335 226.222 62.751C226.321 63.167 226.474 63.5332 226.679 63.8496C226.884 64.166 227.145 64.415 227.461 64.5967C227.777 64.7725 228.155 64.8604 228.595 64.8604C229.134 64.8604 229.576 64.7461 229.922 64.5176C230.273 64.2891 230.555 63.9873 230.766 63.6123C230.977 63.2373 231.141 62.8301 231.258 62.3906V60.2725C231.188 59.9502 231.085 59.6396 230.95 59.3408C230.821 59.0361 230.651 58.7666 230.44 58.5322C230.235 58.292 229.98 58.1016 229.676 57.9609C229.377 57.8203 229.022 57.75 228.612 57.75C228.167 57.75 227.783 57.8438 227.461 58.0312C227.145 58.2129 226.884 58.4648 226.679 58.7871C226.474 59.1035 226.321 59.4727 226.222 59.8945C226.128 60.3105 226.081 60.7559 226.081 61.2305ZM236.637 58.0488V66.0645H235.011V56.5547H236.593L236.637 58.0488ZM239.607 56.502L239.599 58.0137C239.464 57.9844 239.335 57.9668 239.212 57.9609C239.095 57.9492 238.96 57.9434 238.808 57.9434C238.433 57.9434 238.102 58.002 237.814 58.1191C237.527 58.2363 237.284 58.4004 237.085 58.6113C236.886 58.8223 236.728 59.0742 236.61 59.3672C236.499 59.6543 236.426 59.9707 236.391 60.3164L235.934 60.5801C235.934 60.0059 235.989 59.4668 236.101 58.9629C236.218 58.459 236.396 58.0137 236.637 57.627C236.877 57.2344 237.182 56.9297 237.551 56.7129C237.926 56.4902 238.371 56.3789 238.887 56.3789C239.004 56.3789 239.139 56.3936 239.291 56.4229C239.443 56.4463 239.549 56.4727 239.607 56.502ZM244.881 66.2402C244.219 66.2402 243.618 66.1289 243.079 65.9062C242.546 65.6777 242.086 65.3584 241.699 64.9482C241.318 64.5381 241.025 64.0518 240.82 63.4893C240.615 62.9268 240.513 62.3115 240.513 61.6436V61.2744C240.513 60.501 240.627 59.8125 240.855 59.209C241.084 58.5996 241.395 58.084 241.787 57.6621C242.18 57.2402 242.625 56.9209 243.123 56.7041C243.621 56.4873 244.137 56.3789 244.67 56.3789C245.35 56.3789 245.936 56.4961 246.428 56.7305C246.926 56.9648 247.333 57.293 247.649 57.7148C247.966 58.1309 248.2 58.623 248.353 59.1914C248.505 59.7539 248.581 60.3691 248.581 61.0371V61.7666H241.479V60.4395H246.955V60.3164C246.932 59.8945 246.844 59.4844 246.691 59.0859C246.545 58.6875 246.311 58.3594 245.988 58.1016C245.666 57.8438 245.227 57.7148 244.67 57.7148C244.301 57.7148 243.961 57.7939 243.65 57.9521C243.34 58.1045 243.073 58.333 242.851 58.6377C242.628 58.9424 242.455 59.3145 242.332 59.7539C242.209 60.1934 242.147 60.7002 242.147 61.2744V61.6436C242.147 62.0947 242.209 62.5195 242.332 62.918C242.461 63.3105 242.646 63.6562 242.886 63.9551C243.132 64.2539 243.428 64.4883 243.773 64.6582C244.125 64.8281 244.523 64.9131 244.969 64.9131C245.543 64.9131 246.029 64.7959 246.428 64.5615C246.826 64.3271 247.175 64.0137 247.474 63.6211L248.458 64.4033C248.253 64.7139 247.992 65.0098 247.676 65.291C247.359 65.5723 246.97 65.8008 246.507 65.9766C246.05 66.1523 245.508 66.2402 244.881 66.2402ZM256.017 63.542C256.017 63.3076 255.964 63.0908 255.858 62.8916C255.759 62.6865 255.551 62.502 255.234 62.3379C254.924 62.168 254.455 62.0215 253.828 61.8984C253.301 61.7871 252.823 61.6553 252.396 61.5029C251.974 61.3506 251.613 61.166 251.314 60.9492C251.021 60.7324 250.796 60.4775 250.638 60.1846C250.479 59.8916 250.4 59.5488 250.4 59.1562C250.4 58.7812 250.482 58.4268 250.646 58.0928C250.816 57.7588 251.054 57.4629 251.358 57.2051C251.669 56.9473 252.041 56.7451 252.475 56.5986C252.908 56.4521 253.392 56.3789 253.925 56.3789C254.687 56.3789 255.337 56.5137 255.876 56.7832C256.415 57.0527 256.828 57.4131 257.115 57.8643C257.402 58.3096 257.546 58.8047 257.546 59.3496H255.92C255.92 59.0859 255.841 58.8311 255.683 58.585C255.53 58.333 255.305 58.125 255.006 57.9609C254.713 57.7969 254.353 57.7148 253.925 57.7148C253.474 57.7148 253.107 57.7852 252.826 57.9258C252.551 58.0605 252.349 58.2334 252.22 58.4443C252.097 58.6553 252.035 58.8779 252.035 59.1123C252.035 59.2881 252.064 59.4463 252.123 59.5869C252.188 59.7217 252.299 59.8477 252.457 59.9648C252.615 60.0762 252.838 60.1816 253.125 60.2812C253.412 60.3809 253.778 60.4805 254.224 60.5801C255.003 60.7559 255.645 60.9668 256.148 61.2129C256.652 61.459 257.027 61.7607 257.273 62.1182C257.52 62.4756 257.643 62.9092 257.643 63.4189C257.643 63.835 257.555 64.2158 257.379 64.5615C257.209 64.9072 256.96 65.2061 256.632 65.458C256.31 65.7041 255.923 65.8975 255.472 66.0381C255.026 66.1729 254.525 66.2402 253.969 66.2402C253.131 66.2402 252.422 66.0908 251.842 65.792C251.262 65.4932 250.822 65.1064 250.523 64.6318C250.225 64.1572 250.075 63.6562 250.075 63.1289H251.71C251.733 63.5742 251.862 63.9287 252.097 64.1924C252.331 64.4502 252.618 64.6348 252.958 64.7461C253.298 64.8516 253.635 64.9043 253.969 64.9043C254.414 64.9043 254.786 64.8457 255.085 64.7285C255.39 64.6113 255.621 64.4502 255.779 64.2451C255.938 64.04 256.017 63.8057 256.017 63.542ZM265.315 63.542C265.315 63.3076 265.263 63.0908 265.157 62.8916C265.058 62.6865 264.85 62.502 264.533 62.3379C264.223 62.168 263.754 62.0215 263.127 61.8984C262.6 61.7871 262.122 61.6553 261.694 61.5029C261.272 61.3506 260.912 61.166 260.613 60.9492C260.32 60.7324 260.095 60.4775 259.937 60.1846C259.778 59.8916 259.699 59.5488 259.699 59.1562C259.699 58.7812 259.781 58.4268 259.945 58.0928C260.115 57.7588 260.353 57.4629 260.657 57.2051C260.968 56.9473 261.34 56.7451 261.773 56.5986C262.207 56.4521 262.69 56.3789 263.224 56.3789C263.985 56.3789 264.636 56.5137 265.175 56.7832C265.714 57.0527 266.127 57.4131 266.414 57.8643C266.701 58.3096 266.845 58.8047 266.845 59.3496H265.219C265.219 59.0859 265.14 58.8311 264.981 58.585C264.829 58.333 264.604 58.125 264.305 57.9609C264.012 57.7969 263.651 57.7148 263.224 57.7148C262.772 57.7148 262.406 57.7852 262.125 57.9258C261.85 58.0605 261.647 58.2334 261.519 58.4443C261.396 58.6553 261.334 58.8779 261.334 59.1123C261.334 59.2881 261.363 59.4463 261.422 59.5869C261.486 59.7217 261.598 59.8477 261.756 59.9648C261.914 60.0762 262.137 60.1816 262.424 60.2812C262.711 60.3809 263.077 60.4805 263.522 60.5801C264.302 60.7559 264.943 60.9668 265.447 61.2129C265.951 61.459 266.326 61.7607 266.572 62.1182C266.818 62.4756 266.941 62.9092 266.941 63.4189C266.941 63.835 266.854 64.2158 266.678 64.5615C266.508 64.9072 266.259 65.2061 265.931 65.458C265.608 65.7041 265.222 65.8975 264.771 66.0381C264.325 66.1729 263.824 66.2402 263.268 66.2402C262.43 66.2402 261.721 66.0908 261.141 65.792C260.561 65.4932 260.121 65.1064 259.822 64.6318C259.523 64.1572 259.374 63.6562 259.374 63.1289H261.009C261.032 63.5742 261.161 63.9287 261.396 64.1924C261.63 64.4502 261.917 64.6348 262.257 64.7461C262.597 64.8516 262.934 64.9043 263.268 64.9043C263.713 64.9043 264.085 64.8457 264.384 64.7285C264.688 64.6113 264.92 64.4502 265.078 64.2451C265.236 64.04 265.315 63.8057 265.315 63.542Z" fill="#919191"/>
<circle cx="84" cy="183.064" r="5" fill="#29B029"/>
<rect x="69" y="151.064" width="29" height="13" rx="6.5" fill="#29B029"/>
<path d="M84 170.064L87.4641 164.064H80.5359L84 170.064Z" fill="#29B029"/>
<path d="M76.3403 160.383H76.4238C76.8926 160.383 77.2734 160.317 77.5664 160.186C77.8594 160.054 78.085 159.876 78.2432 159.654C78.4014 159.431 78.5098 159.181 78.5684 158.902C78.627 158.621 78.6562 158.333 78.6562 158.037V157.057C78.6562 156.767 78.6226 156.509 78.5552 156.283C78.4907 156.058 78.3999 155.869 78.2827 155.716C78.1685 155.564 78.0381 155.448 77.8916 155.369C77.7451 155.29 77.5898 155.25 77.4258 155.25C77.2383 155.25 77.0698 155.289 76.9204 155.365C76.7739 155.438 76.6494 155.542 76.5469 155.677C76.4473 155.812 76.3711 155.97 76.3184 156.151C76.2656 156.333 76.2393 156.531 76.2393 156.745C76.2393 156.935 76.2627 157.12 76.3096 157.298C76.3564 157.477 76.4282 157.638 76.5249 157.782C76.6216 157.925 76.7417 158.04 76.8853 158.125C77.0317 158.207 77.2031 158.248 77.3994 158.248C77.5811 158.248 77.751 158.212 77.9092 158.142C78.0703 158.069 78.2124 157.971 78.3354 157.848C78.4614 157.722 78.561 157.58 78.6343 157.421C78.7104 157.263 78.7544 157.098 78.7661 156.925H79.1528C79.1528 157.168 79.1045 157.408 79.0078 157.646C78.9141 157.88 78.7822 158.094 78.6123 158.287C78.4424 158.48 78.2432 158.636 78.0146 158.753C77.7861 158.867 77.5371 158.924 77.2676 158.924C76.9512 158.924 76.6772 158.863 76.4458 158.74C76.2144 158.617 76.0239 158.453 75.8745 158.248C75.728 158.042 75.6182 157.814 75.5449 157.562C75.4746 157.307 75.4395 157.049 75.4395 156.789C75.4395 156.484 75.4819 156.198 75.5669 155.932C75.6519 155.665 75.7778 155.431 75.9448 155.229C76.1118 155.023 76.3184 154.864 76.5645 154.75C76.8135 154.635 77.1006 154.578 77.4258 154.578C77.792 154.578 78.104 154.651 78.3618 154.798C78.6196 154.944 78.8291 155.141 78.9902 155.387C79.1543 155.633 79.2744 155.91 79.3506 156.217C79.4268 156.525 79.4648 156.841 79.4648 157.167V157.461C79.4648 157.792 79.4429 158.129 79.3989 158.472C79.3579 158.812 79.2773 159.137 79.1572 159.447C79.04 159.758 78.8687 160.036 78.6431 160.282C78.4175 160.525 78.123 160.719 77.7598 160.862C77.3994 161.003 76.9541 161.073 76.4238 161.073H76.3403V160.383ZM84.6108 157.355V158.331C84.6108 158.855 84.564 159.298 84.4702 159.658C84.3765 160.019 84.2417 160.309 84.0659 160.528C83.8901 160.748 83.6777 160.908 83.4287 161.007C83.1826 161.104 82.9043 161.152 82.5938 161.152C82.3477 161.152 82.1206 161.122 81.9126 161.06C81.7046 160.999 81.5171 160.9 81.3501 160.766C81.186 160.628 81.0454 160.449 80.9282 160.229C80.811 160.01 80.7217 159.743 80.6602 159.43C80.5986 159.116 80.5679 158.75 80.5679 158.331V157.355C80.5679 156.831 80.6147 156.392 80.7085 156.037C80.8052 155.683 80.9414 155.398 81.1172 155.185C81.293 154.968 81.5039 154.812 81.75 154.719C81.999 154.625 82.2773 154.578 82.585 154.578C82.834 154.578 83.0625 154.609 83.2705 154.67C83.4814 154.729 83.6689 154.824 83.833 154.956C83.9971 155.085 84.1362 155.258 84.2505 155.475C84.3677 155.688 84.457 155.951 84.5186 156.261C84.5801 156.572 84.6108 156.937 84.6108 157.355ZM83.7935 158.463V157.219C83.7935 156.932 83.7759 156.68 83.7407 156.463C83.7085 156.244 83.6602 156.056 83.5957 155.901C83.5312 155.746 83.4492 155.62 83.3496 155.523C83.2529 155.426 83.1401 155.356 83.0112 155.312C82.8853 155.265 82.7432 155.242 82.585 155.242C82.3916 155.242 82.2202 155.278 82.0708 155.352C81.9214 155.422 81.7954 155.535 81.6929 155.69C81.5933 155.845 81.5171 156.049 81.4644 156.301C81.4116 156.553 81.3853 156.859 81.3853 157.219V158.463C81.3853 158.75 81.4014 159.003 81.4336 159.223C81.4688 159.443 81.52 159.633 81.5874 159.794C81.6548 159.953 81.7368 160.083 81.8335 160.186C81.9302 160.288 82.0415 160.364 82.1675 160.414C82.2964 160.461 82.4385 160.484 82.5938 160.484C82.793 160.484 82.9673 160.446 83.1167 160.37C83.2661 160.294 83.3906 160.175 83.4902 160.014C83.5928 159.85 83.6689 159.641 83.7188 159.386C83.7686 159.128 83.7935 158.82 83.7935 158.463ZM85.5864 156.235V155.896C85.5864 155.653 85.6392 155.432 85.7446 155.233C85.8501 155.034 86.001 154.874 86.1973 154.754C86.3936 154.634 86.6265 154.574 86.896 154.574C87.1714 154.574 87.4058 154.634 87.5991 154.754C87.7954 154.874 87.9463 155.034 88.0518 155.233C88.1572 155.432 88.21 155.653 88.21 155.896V156.235C88.21 156.472 88.1572 156.69 88.0518 156.89C87.9492 157.089 87.7998 157.249 87.6035 157.369C87.4102 157.489 87.1772 157.549 86.9048 157.549C86.6323 157.549 86.3965 157.489 86.1973 157.369C86.001 157.249 85.8501 157.089 85.7446 156.89C85.6392 156.69 85.5864 156.472 85.5864 156.235ZM86.1973 155.896V156.235C86.1973 156.37 86.2222 156.497 86.272 156.617C86.3247 156.737 86.4038 156.835 86.5093 156.912C86.6147 156.985 86.7466 157.021 86.9048 157.021C87.063 157.021 87.1934 156.985 87.2959 156.912C87.3984 156.835 87.4746 156.737 87.5244 156.617C87.5742 156.497 87.5991 156.37 87.5991 156.235V155.896C87.5991 155.759 87.5728 155.63 87.52 155.51C87.4702 155.387 87.3926 155.289 87.2871 155.215C87.1846 155.139 87.0542 155.101 86.896 155.101C86.7407 155.101 86.6104 155.139 86.5049 155.215C86.4023 155.289 86.3247 155.387 86.272 155.51C86.2222 155.63 86.1973 155.759 86.1973 155.896ZM88.7021 159.838V159.496C88.7021 159.255 88.7549 159.036 88.8604 158.836C88.9658 158.637 89.1167 158.478 89.313 158.357C89.5093 158.237 89.7422 158.177 90.0117 158.177C90.2871 158.177 90.5215 158.237 90.7148 158.357C90.9111 158.478 91.062 158.637 91.1675 158.836C91.2729 159.036 91.3257 159.255 91.3257 159.496V159.838C91.3257 160.079 91.2729 160.298 91.1675 160.498C91.0649 160.697 90.9155 160.856 90.7192 160.977C90.5259 161.097 90.293 161.157 90.0205 161.157C89.748 161.157 89.5137 161.097 89.3174 160.977C89.1211 160.856 88.9688 160.697 88.8604 160.498C88.7549 160.298 88.7021 160.079 88.7021 159.838ZM89.313 159.496V159.838C89.313 159.973 89.3379 160.102 89.3877 160.225C89.4404 160.345 89.5195 160.443 89.625 160.52C89.7305 160.593 89.8623 160.629 90.0205 160.629C90.1787 160.629 90.3091 160.593 90.4116 160.52C90.5171 160.443 90.5947 160.345 90.6445 160.225C90.6943 160.105 90.7192 159.976 90.7192 159.838V159.496C90.7192 159.358 90.6929 159.229 90.6401 159.109C90.5903 158.989 90.5127 158.892 90.4072 158.819C90.3047 158.743 90.1729 158.705 90.0117 158.705C89.8564 158.705 89.7261 158.743 89.6206 158.819C89.5181 158.892 89.4404 158.989 89.3877 159.109C89.3379 159.229 89.313 159.358 89.313 159.496ZM90.2139 155.576L87.0894 160.577L86.6323 160.287L89.7568 155.286L90.2139 155.576Z" fill="white"/>
<defs>
<filter id="filter0_d_111_3" x="-21.9133" y="34.0542" width="333.914" height="227.416" filterUnits="userSpaceOnUse" color-interpolation-filters="sRGB">
<feFlood flood-opacity="0" result="BackgroundImageFix"/>
<feColorMatrix in="SourceAlpha" type="matrix" values="0 0 0 0 0 0 0 0 0 0 0 0 0 0 0 0 0 0 127 0" result="hardAlpha"/>
<feOffset dy="4"/>
<feGaussianBlur stdDeviation="10"/>
<feComposite in2="hardAlpha" operator="out"/>
<feColorMatrix type="matrix" values="0 0 0 0 0 0 0 0 0 0 0 0 0 0 0 0 0 0 0.24 0"/>
<feBlend mode="normal" in2="BackgroundImageFix" result="effect1_dropShadow_111_3"/>
<feBlend mode="normal" in="SourceGraphic" in2="effect1_dropShadow_111_3" result="shape"/>
</filter>
<filter id="filter1_d_111_3" x="32" y="0" width="625" height="130" filterUnits="userSpaceOnUse" color-interpolation-filters="sRGB">
<feFlood flood-opacity="0" result="BackgroundImageFix"/>
<feColorMatrix in="SourceAlpha" type="matrix" values="0 0 0 0 0 0 0 0 0 0 0 0 0 0 0 0 0 0 127 0" result="hardAlpha"/>
<feMorphology radius="2" operator="erode" in="SourceAlpha" result="effect1_dropShadow_111_3"/>
<feOffset dy="4"/>
<feGaussianBlur stdDeviation="19.5"/>
<feComposite in2="hardAlpha" operator="out"/>
<feColorMatrix type="matrix" values="0 0 0 0 0 0 0 0 0 0 0 0 0 0 0 0 0 0 0.25 0"/>
<feBlend mode="normal" in2="BackgroundImageFix" result="effect1_dropShadow_111_3"/>
<feBlend mode="normal" in="SourceGraphic" in2="effect1_dropShadow_111_3" result="shape"/>
</filter>
</defs>
</svg>
