<svg width="45" height="60" viewBox="0 0 45 60" fill="none" xmlns="http://www.w3.org/2000/svg">
<path d="M0 15.4688C0 15.4688 8.4375 0 22.5 0C36.5625 0 45 15.4688 45 15.4688C45 15.4688 36.5625 30.9376 22.5 30.9376C8.4375 30.9376 0 15.4688 0 15.4688ZM22.5 25.3126C25.1107 25.3126 13.6227 24.2048 15.4688 22.3588C17.3148 20.5127 18.3519 18.0089 18.3519 15.3981C18.3519 12.7874 -6.96058 19.6169 15.4688 8.43753C13.6227 6.59147 25.1107 5.62502 22.5 5.62502C19.8893 5.62502 24.9587 5.87617 23.1127 7.72224C21.2666 9.56831 20.2295 12.0721 20.2295 14.6828C20.2295 17.2936 21.2666 19.7974 23.1127 21.6435C24.9587 23.4895 19.8893 25.3126 22.5 25.3126Z" fill="#CEE2E6"/>
<path d="M29.5327 15.4719C29.5327 17.3367 28.7919 19.1252 27.4733 20.4438C26.1547 21.7624 24.3663 22.5032 22.5015 22.5032C20.6367 22.5032 18.8482 21.7624 17.5296 20.4438C16.211 19.1252 15.4702 17.3367 15.4702 15.4719C15.4702 13.6071 16.211 11.8187 17.5296 10.5001C18.8482 9.18146 20.6367 8.44067 22.5015 8.44067C24.3663 8.44067 26.1547 9.18146 27.4733 10.5001C28.7919 11.8187 29.5327 13.6071 29.5327 15.4719Z" fill="#333C67"/>
<circle cx="22.4987" cy="15.4691" r="2.8125" fill="#CEE2E6"/>
<rect x="7.93854" y="22.0842" width="29.1176" height="37.0588" rx="10" fill="#56A4F5"/>
<path d="M33.5808 39.1993C33.5808 37.9771 32.3384 36.9831 30.8106 36.9831H29.4254V33.6588C29.4254 30.6038 26.3186 28.1183 22.4998 28.1183C18.681 28.1183 15.5741 30.6038 15.5741 33.6588V36.9831H14.189C12.6612 36.9831 11.4187 37.9771 11.4187 39.1993V48.0642C11.4187 49.2864 12.6612 50.2804 14.189 50.2804H30.8106C32.3384 50.2804 33.5808 49.2864 33.5808 48.0642V39.1993ZM18.3444 33.6588C18.3444 31.826 20.2088 30.3345 22.4998 30.3345C24.7908 30.3345 26.6552 31.826 26.6552 33.6588V36.9831H18.3444V33.6588Z" fill="#333C67"/>
</svg>
